<?xml version="1.0" standalone="no"?><!DOCTYPE svg PUBLIC "-//W3C//DTD SVG 1.1//EN" "http://www.w3.org/Graphics/SVG/1.1/DTD/svg11.dtd"><svg class="icon" width="200px" height="200.00px" viewBox="0 0 1024 1024" version="1.1" xmlns="http://www.w3.org/2000/svg"><path d="M61.44 470.9376c0 248.79104 201.6768 450.46784 450.4576 450.46784 248.79104 0 450.46784-201.6768 450.46784-450.4576C962.36544 222.1568 760.68864 20.48 511.90784 20.48 263.13728 20.45952 61.44 222.1056 61.44 470.87616v0.07168z" fill="#FFDB00" /><path d="M830.53568 152.55552l-637.0304 637.1328c176.40448 175.45216 461.62944 174.68416 637.0816-1.71008 174.81728-175.74912 174.7968-459.71456-0.0512-635.42272z" fill="#FDC223" /><path d="M184.45312 470.9376v0.06144c0 180.89984 146.6368 327.53664 327.53664 327.53664 180.8896 0 327.53664-146.6368 327.53664-327.53664v-0.11264c0-180.8896-146.6368-327.53664-327.53664-327.53664-180.8896 0-327.53664 146.6368-327.53664 327.53664v0.06144z" fill="#F9AB10" /><path d="M736.45056 233.0624c-131.1744-124.24192-338.20672-118.6304-462.4384 12.53376-119.5008 126.1568-119.5008 323.7376 0 449.8944 0-0.16384 462.4384-462.4384 462.4384-462.4384z" fill="#F9B721" /><path d="M483.79904 563.48672h-80.60928V515.3792h80.60928v-26.0096h-80.60928v-48.08704h56.6784l-67.60448-137.14432h66.89792l43.44832 92.6208a175.104 175.104 0 0 1 11.78624 30.6688c3.072-10.53696 7.0144-20.7872 11.78624-30.6688l44.38016-92.6208h66.89792l-68.41344 137.17504h57.61024v48.06656H544.8704v26.0096h81.77664v48.08704H544.8704v101.76512h-60.9792l-0.1024-101.76512z" fill="#D3830D" /><path d="M572.89728 433.42848L442.79808 563.53792h40.88832v101.76512H544.768v-101.76512h81.77664v-48.09728H544.768v-26.0096h81.77664v-48.10752H568.9344l3.95264-7.8848z" fill="#BF790A" /><path d="M133.12 778.1888c0 124.39552 100.84352 225.23904 225.2288 225.23904 124.39552 0 225.23904-100.84352 225.23904-225.23904C583.5776 653.80352 482.74432 552.96 358.3488 552.96 233.984 552.96 133.13024 653.7728 133.12 778.15808v0.03072z" fill="#FFDB00" /><path d="M517.66272 619.008L199.168 937.5744c88.19712 87.71584 230.8096 87.33696 318.53568-0.86016 87.40864-87.87968 87.3984-229.85728-0.03072-317.71648z" fill="#FDC223" /><path d="M194.63168 778.19904v0.03072c0 90.43968 73.3184 163.76832 163.75808 163.76832 90.44992 0 163.76832-73.3184 163.76832-163.76832v-0.06144C522.15808 687.7184 448.83968 614.4 358.4 614.4c-90.44992 0-163.76832 73.3184-163.76832 163.76832v0.03072z" fill="#F9AB10" /><path d="M470.6304 659.2512c-65.5872-62.12608-169.1136-59.32032-231.2192 6.26688-59.7504 63.0784-59.7504 161.86368 0 224.94208 0-0.08192 231.2192-231.2192 231.2192-231.2192z" fill="#F9B721" /><path d="M344.29952 824.45312h-40.30464v-24.04352h40.30464v-13.0048h-40.30464v-24.04352h28.34432l-33.81248-68.56704h33.45408l21.72928 46.30528c2.43712 4.9152 4.4032 10.04544 5.888 15.32928 1.536-5.26336 3.51232-10.3936 5.89824-15.32928l22.17984-46.30528h33.45408l-34.2016 68.58752h28.79488v24.02304h-40.88832v13.0048h40.88832v24.04352h-40.88832v50.8928h-30.48448l-0.0512-50.8928z" fill="#D3830D" /><path d="M388.85376 759.42912l-65.05472 65.05472h20.43904v50.88256H374.784v-50.8928h40.88832v-24.03328H374.784v-13.0048h40.88832v-24.064H386.8672l1.98656-3.9424z" fill="#BF790A" /><path d="M450.56 778.1888c0 124.39552 100.84352 225.23904 225.2288 225.23904 124.39552 0 225.23904-100.84352 225.23904-225.23904C901.0176 653.80352 800.18432 552.96 675.7888 552.96 551.424 552.96 450.57024 653.7728 450.56 778.15808v0.03072z" fill="#FFDB00" /><path d="M835.10272 619.008L516.608 937.5744c88.19712 87.71584 230.8096 87.33696 318.53568-0.86016 87.40864-87.87968 87.3984-229.85728-0.03072-317.71648z" fill="#FDC223" /><path d="M512.07168 778.19904v0.03072c0 90.43968 73.3184 163.76832 163.75808 163.76832 90.44992 0 163.76832-73.3184 163.76832-163.76832v-0.06144C839.59808 687.7184 766.27968 614.4 675.84 614.4c-90.43968 0-163.75808 73.3184-163.75808 163.76832v0.03072z" fill="#F9AB10" /><path d="M788.0704 659.2512c-65.5872-62.12608-169.10336-59.32032-231.2192 6.26688-59.76064 63.0784-59.76064 161.86368 0 224.94208 0-0.08192 231.2192-231.2192 231.2192-231.2192z" fill="#F9B721" /><path d="M661.73952 824.45312h-40.30464v-24.04352h40.30464v-13.0048h-40.30464v-24.04352h28.34432l-33.81248-68.56704h33.45408l21.72928 46.30528c2.43712 4.9152 4.4032 10.04544 5.888 15.32928 1.536-5.26336 3.51232-10.3936 5.89824-15.32928l22.17984-46.30528h33.45408l-34.2016 68.58752h28.79488v24.02304h-40.88832v13.0048h40.88832v24.04352h-40.88832v50.8928h-30.48448l-0.0512-50.8928z" fill="#D3830D" /><path d="M706.29376 759.42912l-65.05472 65.05472h20.43904v50.88256H692.224v-50.8928h40.88832v-24.03328H692.224v-13.0048h40.88832v-24.064H704.3072l1.98656-3.9424z" fill="#BF790A" /></svg>