<?xml version="1.0" standalone="no"?><!DOCTYPE svg PUBLIC "-//W3C//DTD SVG 1.1//EN" "http://www.w3.org/Graphics/SVG/1.1/DTD/svg11.dtd"><svg t="1603250510027" class="icon" viewBox="0 0 1024 1024" version="1.1" xmlns="http://www.w3.org/2000/svg" p-id="46185" xmlns:xlink="http://www.w3.org/1999/xlink" width="200" height="200"><defs><style type="text/css"></style></defs><path d="M1012.57943 333.251994c-62.384333-88.706355-124.767642-177.45152-187.152998-266.178355-5.558784-8.773837-15.641907-14.997606-25.990963-14.997606L495.866405 52.076032l-18.858259 0L201.107351 52.076032c-9.274573 0-16.29993 3.475149-21.120922 8.724685-0.16169 0.164762-0.323379 0.333619-0.483021 0.504525-0.06144 0.07168-0.12585 0.140186-0.188314 0.211866-1.45623 1.581056-2.828493 3.362611-4.073984 5.388698-54.667264 88.779981-109.310976 177.584538-163.970048 266.345165-7.069286 11.485594-4.575437 25.068954 3.217408 34.304307 0.464589 0.687616 0.94761 1.365094 1.465446 2.026189 154.743501 197.936026 309.473792 395.920282 464.213197 593.852211 6.764339 8.662323 15.009485 11.38432 22.812467 10.174771 6.765363 0.012288 13.679104-2.960384 19.571507-10.174771 161.764762-197.93193 323.560141-395.916186 485.335142-593.851187 0.834048-1.021235 1.581056-2.08343 2.281062-3.165082C1017.662362 357.145088 1020.189082 344.084685 1012.57943 333.251994zM929.086464 318.401741 744.622891 318.401741c21.073818-57.48521 42.142515-114.973594 63.218381-172.458803C848.254259 203.425075 888.668365 260.912333 929.086464 318.401741zM501.32183 126.093824c43.903693 64.093798 87.80329 128.202854 131.705958 192.307917l-267.452033 0C410.822042 254.29975 456.066355 190.195814 501.32183 126.093824zM658.999398 378.347008c-52.296192 142.656-104.593306 285.313126-156.88233 427.988582-50.849178-143.119565-101.886566-285.876941-154.817229-427.988582L658.999353 378.347008zM689.525862 295.068262c-41.791488-61.008486-83.577856-122.029261-125.367296-183.049011l192.464152 0C734.256333 173.032858 711.891149 234.05568 689.525862 295.068262zM313.535488 288.548762c-22.372454-58.971136-45.141914-117.820416-68.416922-176.530534l193.015737 0C396.601651 170.85737 355.068006 229.70153 313.535488 288.548762zM195.429786 148.438733c22.282342 56.532582 44.095078 113.194086 65.566925 169.961984L90.795539 318.400717C125.679411 261.744333 160.557158 205.089997 195.429786 148.438733zM283.531878 378.347008c54.76137 146.58857 107.453645 293.868954 159.926784 441.528013C328.409805 672.70103 213.365043 525.523968 98.334515 378.347008L283.531902 378.347008zM722.650624 378.347008l201.057207 0C802.169856 527.049728 680.644198 675.753574 559.121613 824.45015 613.623091 675.74743 668.137882 527.04768 722.650624 378.347008z" fill="#1296db" p-id="46186"></path></svg>