<?xml version="1.0" standalone="no"?><!DOCTYPE svg PUBLIC "-//W3C//DTD SVG 1.1//EN" "http://www.w3.org/Graphics/SVG/1.1/DTD/svg11.dtd"><svg t="1603250443449" class="icon" viewBox="0 0 1024 1024" version="1.1" xmlns="http://www.w3.org/2000/svg" p-id="45154" xmlns:xlink="http://www.w3.org/1999/xlink" width="200" height="200"><defs><style type="text/css"></style></defs><path d="M682.4 543.2h-98.5l-33-99.6c-3.5-14.5-17.1-30.2-38.6-30.2s-35.1 15.7-38 28.2l-33.6 101.5H337.5c-19.4 0-35.6 11.1-41.3 28.3-6.6 19.9 2.8 36.7 12.9 43.1l87.4 62.5-32.4 98c-7 14.5-5.2 34.2 12 46.4 7.3 5.2 15.8 8 24.7 8 11.4 0 19.8-4.6 23.9-7l87.6-62.6 82.1 58.5c3.2 2.8 15.1 11.9 30.9 11.9 8.3 0 16.2-2.5 22.8-7.3 16.7-11.9 18.9-32.1 12.7-46.8L628 676.9l81.5-58.3c13.2-7.7 24.2-25.6 17.2-46.8-5.9-17.8-22.4-28.8-44.2-28.8l-0.1 0.2zM841.4 113.9v134.7c0 26.6-11.5 49.7-34.2 68.7l-48.9 39.3c-4.5 3.6-10.2 5.6-16 5.6-7.3 0-14.6-3.1-19.6-9.2-8.8-10.6-7.2-26.3 3.6-35l48.5-38.9c14.3-12 16-23.2 16-30.5V113.9H638.6v153.3c0 13.7-11.3 24.9-25.3 24.9S588 281 588 267.2V113.9H442.7v153.3c0 13.7-11.3 24.9-25.3 24.9s-25.3-11.1-25.3-24.9V113.9H233.3v134.7c0 6.1 6.7 23.1 15.9 30.4l48.6 39c10.8 8.7 12.4 24.3 3.6 35s-24.7 12.3-35.6 3.6l-48.5-38.9c-21.6-17.2-34.6-48.6-34.6-69V114c0-27.4 22.7-49.7 50.6-49.7h557.6c27.8-0.1 50.5 22.3 50.5 49.6z" p-id="45155" fill="#88147f"></path><path d="M512.1 312.5c-181.6 0-329.3 145.3-329.3 323.9 0 178.6 147.8 323.9 329.3 323.9 181.6 0 329.3-145.3 329.3-323.9 0-178.7-147.7-323.9-329.3-323.9z m0 598c-153.7 0-278.8-123-278.8-274.2s125-274.1 278.8-274.1c153.7 0 278.8 123 278.8 274.1 0 151.2-125.1 274.2-278.8 274.2z" p-id="45156" fill="#88147f"></path></svg>