<?xml version="1.0" standalone="no"?><!DOCTYPE svg PUBLIC "-//W3C//DTD SVG 1.1//EN" "http://www.w3.org/Graphics/SVG/1.1/DTD/svg11.dtd"><svg class="icon" width="200px" height="200.00px" viewBox="0 0 1024 1024" version="1.1" xmlns="http://www.w3.org/2000/svg"><path d="M892.4 174.6v136.2h116V216c0-68.2-53.6-127.4-116-139.2v97.8z" fill="#FDE670" /><path d="M440 74v236h144l-1.2-236H440z m0 0" fill="#FFA371" /><path d="M127.8 307.8H15.6v192.6H1008v-192.6H127.8z m0 0" fill="#FDE466" /><path d="M128.6 75.8C66.2 87.6 15.6 144 15.6 212v97.8h113v-234z" fill="#FDE670" /><path d="M121.8 382.2H440V174H121.8v208.2zM582.8 174v211.2h312.4V174H582.8z m0 0" fill="#F2573B" /><path d="M582.8 77V174h312.4V77c-9-3-17.8-3-23.8-3H582.8v3zM440 74H146.2c-6 0-15.2 0-24.2 3V174h318V74z" fill="#E1462A" /><path d="M16 817.6c0 77.4 59 136.8 135.8 136.8h720.4c76.8 0 135.8-53.6 135.8-133.8V469.6H16v348z m0 0" fill="#F9C45A" /><path d="M122.2 582.6h779.6v53.6H122.2z" fill="#D7341F" /><path d="M122.2 636.2h779.6v211.2H122.2z" fill="#EB492C" /><path d="M740.8 85.6c0 86.2-68.4 157.6-154.8 157.6 86.2 0 154.8 71.4 154.8 157.6 0-86.2 68.4-157.6 154.8-157.6-83.4 0-154.8-71.4-154.8-157.6M264.6 121.2c0 86.2-68.4 157.6-154.8 157.6 86.2 0 154.8 71.4 154.8 157.6 0-86.2 68.4-157.6 154.8-157.6-86.2 0.2-154.8-71.2-154.8-157.6" fill="#FFFFFF" /><path d="M512.4 499.8m-181 0a181 181 0 1 0 362 0 181 181 0 1 0-362 0Z" fill="#FCD134" /><path d="M472 323.4c-31.2 7.2-59.8 22.4-82.8 43.8L612 651c26.2-17.4 47.8-41.4 62.2-70L472 323.4z" fill="#FFE786" /><path d="M417.8 490c5.6-53.2 54.6-93 104.8-87.8 50.4 5.2 90 54.2 84.6 107.4s-54.6 93-104.8 87.8c-50.4-5.2-90.2-54.2-84.6-107.4z m0 0" fill="#E56049" /></svg>